<svg xmlns="http://www.w3.org/2000/svg" width="45.79" height="36.44" viewBox="0 0 45.79 36.44">
  <g id="home" transform="translate(-17.999 -61.994)">
    <g id="Group_1" data-name="Group 1" transform="translate(17.999 61.994)">
      <path id="Path_198" data-name="Path 198" d="M82.057,120.939,65.727,134.4a.386.386,0,0,1-.014.085.389.389,0,0,0-.014.085V148.2a1.844,1.844,0,0,0,1.818,1.818H78.422V139.116h7.272v10.907H96.6a1.846,1.846,0,0,0,1.818-1.819V134.572a.4.4,0,0,0-.029-.17Z" transform="translate(-59.162 -113.583)" fill="#fff"/>
      <path id="Path_199" data-name="Path 199" d="M45.474,64.745l-6.22-5.169V47.988a.875.875,0,0,0-.909-.909H32.892a.874.874,0,0,0-.909.909v5.538l-6.93-5.794a3.523,3.523,0,0,0-4.317,0L.315,64.745a.825.825,0,0,0-.312.61.92.92,0,0,0,.2.668l1.761,2.1a.969.969,0,0,0,.6.313,1.056,1.056,0,0,0,.682-.2L22.895,51.851,42.549,68.239a.875.875,0,0,0,.6.2h.085a.97.97,0,0,0,.6-.312l1.761-2.1a.919.919,0,0,0,.2-.668A.828.828,0,0,0,45.474,64.745Z" transform="translate(0.001 -46.994)" fill="#fff"/>
    </g>
  </g>
</svg>
